<?xml version="1.0" encoding="utf-8"?>
<svg width="34px" height="26px" viewBox="0 0 34 26" version="1.1" xmlns:xlink="http://www.w3.org/1999/xlink" xmlns="http://www.w3.org/2000/svg">
  <desc>Created with Lunacy</desc>
  <path d="M13.261 0.634698C12.5725 -0.0813727 11.8151 -0.191536 10.9889 0.304205C3.66292 4.93112 0 10.577 0 17.2419C0 19.941 0.743601 22.0754 2.23082 23.6452C3.71805 25.2151 5.5082 26 7.60133 26C9.80462 26 11.5672 25.2977 12.8892 23.8931C14.2112 22.4885 14.8722 20.6295 14.8722 18.316C14.8722 16.3331 14.3489 14.7082 13.3023 13.4413C12.2558 12.1744 10.9889 11.541 9.50166 11.541C8.73051 11.541 8.42756 11.0177 8.59281 9.97111C8.75805 8.81438 9.17116 7.74029 9.83215 6.74881C10.4931 5.75733 11.6499 4.43537 13.3023 2.7829C13.9633 2.06683 13.9495 1.35077 13.261 0.634698ZM32.2649 0.634698C31.5764 -0.0813727 30.819 -0.191536 29.9928 0.304205C22.6668 4.93112 19.0039 10.577 19.0039 17.2419C19.0039 19.941 19.7337 22.0754 21.1934 23.6452C22.6531 25.2151 24.457 26 26.6052 26C28.7534 26 30.4885 25.2977 31.8105 23.8931C33.1325 22.4885 33.7934 20.6295 33.7934 18.316C33.7934 16.3331 33.2839 14.7082 32.2649 13.4413C31.2459 12.1744 29.9928 11.541 28.5056 11.541C27.7344 11.541 27.4315 11.0177 27.5967 9.97111C27.7069 8.81438 28.0924 7.74029 28.7534 6.74881C29.4144 5.75733 30.5711 4.43537 32.2236 2.7829C32.9397 2.06683 32.9534 1.35077 32.2649 0.634698Z" id="“" fill="#B38A58" fill-opacity="0.6" fill-rule="evenodd" stroke="none" />
</svg>