<?xml version="1.0" encoding="utf-8"?>
<svg width="82px" height="4px" viewBox="0 0 82 4" version="1.1"
    xmlns:xlink="http://www.w3.org/1999/xlink"
    xmlns="http://www.w3.org/2000/svg">
    <desc>Created with Lunacy</desc>
    <g id="Group-3">
        <path
                            d="M81.0467 3.6L81.0467 3.6C79.4507 3.6 78.632 2.91467 77.9107 2.31067C77.2587 1.764 76.7427 1.33333 75.632 1.33333C74.5227 1.33333 74.0093 1.764 73.3573 2.31067C72.6373 2.91467 71.82 3.6 70.2267 3.6C68.632 3.6 67.816 2.91467 67.096 2.31067C66.4453 1.764 65.9307 1.33333 64.8227 1.33333C63.7147 1.33333 63.2 1.764 62.5493 2.31067C61.8293 2.91467 61.0133 3.6 59.4187 3.6C57.8253 3.6 57.008 2.91467 56.288 2.31067C55.636 1.764 55.1227 1.33333 54.0147 1.33333C52.9053 1.33333 52.3907 1.764 51.74 2.31067C51.0187 2.91467 50.2027 3.6 48.6093 3.6C47.016 3.6 46.1973 2.91467 45.4773 2.31067C44.8267 1.764 44.312 1.33333 43.204 1.33333C42.096 1.33333 41.5813 1.764 40.9307 2.31067C40.2107 2.91467 39.3947 3.6 37.8 3.6C36.208 3.6 35.3933 2.91467 34.6733 2.31067C34.0213 1.764 33.5093 1.33333 32.4013 1.33333C31.2933 1.33333 30.7787 1.764 30.128 2.31067C29.408 2.91467 28.5907 3.6 26.9987 3.6C25.4067 3.6 24.5893 2.91467 23.8707 2.31067C23.22 1.764 22.7067 1.33333 21.6 1.33333C20.492 1.33333 19.9787 1.764 19.328 2.31067C18.608 2.91467 17.792 3.6 16.1987 3.6C14.6067 3.6 13.792 2.91467 13.0733 2.30933C12.4227 1.764 11.9093 1.33333 10.804 1.33333C9.696 1.33333 9.18267 1.764 8.53067 2.31067C7.81067 2.91467 6.99467 3.6 5.40133 3.6C3.808 3.6 2.992 2.91467 2.272 2.31067C1.62133 1.764 1.108 1.33333 0 1.33333L0 0C1.592 0 2.408 0.684 3.12933 1.28933C3.78 1.836 4.29333 2.26667 5.40133 2.26667C6.50933 2.26667 7.02267 1.836 7.67467 1.28933C8.39467 0.684 9.21067 0 10.804 0C12.396 0 13.2107 0.684 13.9293 1.28933C14.5787 1.836 15.092 2.26667 16.1987 2.26667C17.3067 2.26667 17.82 1.836 18.4707 1.28933C19.1907 0.684 20.008 0 21.6 0C23.192 0 24.0093 0.684 24.728 1.28933C25.3787 1.836 25.892 2.26667 26.9987 2.26667C28.1067 2.26667 28.62 1.836 29.2707 1.28933C29.9907 0.684 30.8067 0 32.4013 0C33.9947 0 34.8093 0.684 35.5293 1.29067C36.1813 1.836 36.6933 2.26667 37.8 2.26667C38.908 2.26667 39.4227 1.836 40.0747 1.28933C40.7947 0.684 41.6107 0 43.204 0C44.7973 0 45.6147 0.684 46.3347 1.28933C46.9853 1.836 47.5 2.26667 48.6093 2.26667C49.7173 2.26667 50.232 1.836 50.8827 1.28933C51.6027 0.684 52.42 0 54.0147 0C55.608 0 56.424 0.684 57.144 1.28933C57.796 1.836 58.3093 2.26667 59.4187 2.26667C60.5267 2.26667 61.0413 1.836 61.692 1.28933C62.412 0.684 63.2293 0 64.8227 0C66.416 0 67.2333 0.684 67.9533 1.28933C68.604 1.836 69.1187 2.26667 70.2267 2.26667C71.336 2.26667 71.8507 1.836 72.5013 1.28933C73.2213 0.684 74.0387 0 75.632 0C77.2293 0 78.0467 0.684 78.768 1.28933C79.42 1.836 79.936 2.26667 81.0467 2.26667"
                            id="Path" fill="#B38A58" stroke="none" />
    </g>
</svg>