<?xml version="1.0" standalone="no"?>
<!DOCTYPE svg PUBLIC "-//W3C//DTD SVG 20010904//EN"
 "http://www.w3.org/TR/2001/REC-SVG-20010904/DTD/svg10.dtd">
<svg version="1.0" xmlns="http://www.w3.org/2000/svg"
 width="541.000000pt" height="541.000000pt" viewBox="0 0 541.000000 541.000000"
 preserveAspectRatio="xMidYMid meet">
<metadata>
Created by potrace 1.11, written by Peter Selinger 2001-2013
</metadata>
<g transform="translate(0.000000,541.000000) scale(0.100000,-0.100000)"
fill="#000000" stroke="none">
<path d="M2515 5404 c-422 -42 -713 -124 -1050 -298 -728 -375 -1249 -1064
-1410 -1865 -41 -203 -49 -297 -49 -536 0 -239 8 -333 49 -536 105 -520 360
-996 739 -1375 429 -429 961 -689 1586 -775 125 -17 525 -17 650 0 625 86
1157 346 1586 775 429 429 689 961 775 1586 17 125 17 525 0 650 -86 625 -346
1157 -775 1586 -422 421 -944 681 -1550 770 -97 14 -468 26 -551 18z m223
-1305 c530 -58 827 -325 826 -744 0 -95 -3 -119 -26 -177 -34 -84 -90 -168
-159 -235 -64 -62 -84 -77 -163 -119 l-60 -32 45 -12 c115 -29 218 -89 310
-181 173 -173 250 -406 204 -621 -32 -155 -97 -270 -220 -393 -131 -130 -276
-211 -463 -257 -73 -19 -116 -22 -262 -22 -157 0 -187 2 -295 28 -66 15 -122
30 -124 32 -8 8 86 152 131 200 73 77 133 103 265 114 269 22 415 155 430 395
16 236 -123 405 -397 486 -66 19 -106 22 -327 26 l-253 5 0 -626 0 -626 -260
0 -260 0 0 1339 0 1339 23 5 c71 18 389 61 587 80 84 9 359 6 448 -4z"/>
<path d="M2305 3729 c-44 -5 -86 -11 -92 -14 -10 -3 -13 -90 -13 -385 l0 -380
198 0 c134 0 219 5 266 15 154 33 270 115 329 234 29 59 32 74 31 151 -1 101
-26 167 -93 242 -53 60 -178 123 -271 138 -76 12 -242 11 -355 -1z"/>
</g>
</svg>
