<?xml version="1.0" encoding="utf-8"?>
<svg width="65px" height="3px" viewBox="0 0 65 3" version="1.1" xmlns:xlink="http://www.w3.org/1999/xlink" xmlns="http://www.w3.org/2000/svg">
  <desc>Created with Lunacy</desc>
  <g id="Group-3">
    <path d="M64.8373 2.88L64.8373 2.88C63.5605 2.88 62.9056 2.33173 62.3285 1.84853C61.8069 1.4112 61.3941 1.06667 60.5056 1.06667C59.6181 1.06667 59.2075 1.4112 58.6859 1.84853C58.1099 2.33173 57.456 2.88 56.1813 2.88C54.9056 2.88 54.2528 2.33173 53.6768 1.84853C53.1563 1.4112 52.7445 1.06667 51.8581 1.06667C50.9717 1.06667 50.56 1.4112 50.0395 1.84853C49.4635 2.33173 48.8107 2.88 47.5349 2.88C46.2603 2.88 45.6064 2.33173 45.0304 1.84853C44.5088 1.4112 44.0981 1.06667 43.2117 1.06667C42.3243 1.06667 41.9125 1.4112 41.392 1.84853C40.8149 2.33173 40.1621 2.88 38.8875 2.88C37.6128 2.88 36.9579 2.33173 36.3819 1.84853C35.8613 1.4112 35.4496 1.06667 34.5632 1.06667C33.6768 1.06667 33.2651 1.4112 32.7445 1.84853C32.1685 2.33173 31.5157 2.88 30.24 2.88C28.9664 2.88 28.3147 2.33173 27.7387 1.84853C27.2171 1.4112 26.8075 1.06667 25.9211 1.06667C25.0347 1.06667 24.6229 1.4112 24.1024 1.84853C23.5264 2.33173 22.8725 2.88 21.5989 2.88C20.3253 2.88 19.6715 2.33173 19.0965 1.84853C18.576 1.4112 18.1653 1.06667 17.28 1.06667C16.3936 1.06667 15.9829 1.4112 15.4624 1.84853C14.8864 2.33173 14.2336 2.88 12.9589 2.88C11.6853 2.88 11.0336 2.33173 10.4587 1.84747C9.93813 1.4112 9.52747 1.06667 8.6432 1.06667C7.7568 1.06667 7.34613 1.4112 6.82453 1.84853C6.24853 2.33173 5.59573 2.88 4.32107 2.88C3.0464 2.88 2.3936 2.33173 1.8176 1.84853C1.29707 1.4112 0.8864 1.06667 0 1.06667L0 0C1.2736 0 1.9264 0.5472 2.50347 1.03147C3.024 1.4688 3.43467 1.81333 4.32107 1.81333C5.20747 1.81333 5.61813 1.4688 6.13973 1.03147C6.71573 0.5472 7.36853 0 8.6432 0C9.9168 0 10.5685 0.5472 11.1435 1.03147C11.6629 1.4688 12.0736 1.81333 12.9589 1.81333C13.8453 1.81333 14.256 1.4688 14.7765 1.03147C15.3525 0.5472 16.0064 0 17.28 0C18.5536 0 19.2075 0.5472 19.7824 1.03147C20.3029 1.4688 20.7136 1.81333 21.5989 1.81333C22.4853 1.81333 22.896 1.4688 23.4165 1.03147C23.9925 0.5472 24.6453 0 25.9211 0C27.1957 0 27.8475 0.5472 28.4235 1.03253C28.9451 1.4688 29.3547 1.81333 30.24 1.81333C31.1264 1.81333 31.5381 1.4688 32.0597 1.03147C32.6357 0.5472 33.2885 0 34.5632 0C35.8379 0 36.4917 0.5472 37.0677 1.03147C37.5883 1.4688 38 1.81333 38.8875 1.81333C39.7739 1.81333 40.1856 1.4688 40.7061 1.03147C41.2821 0.5472 41.936 0 43.2117 0C44.4864 0 45.1392 0.5472 45.7152 1.03147C46.2368 1.4688 46.6475 1.81333 47.5349 1.81333C48.4213 1.81333 48.8331 1.4688 49.3536 1.03147C49.9296 0.5472 50.5835 0 51.8581 0C53.1328 0 53.7867 0.5472 54.3627 1.03147C54.8832 1.4688 55.2949 1.81333 56.1813 1.81333C57.0688 1.81333 57.4805 1.4688 58.0011 1.03147C58.5771 0.5472 59.2309 0 60.5056 0C61.7835 0 62.4373 0.5472 63.0144 1.03147C63.536 1.4688 63.9488 1.81333 64.8373 1.81333" id="Path" fill="#B38A58" stroke="none" />
  </g>
</svg>