<?xml version="1.0" encoding="utf-8"?>
<svg width="18px" height="20px" viewBox="0 0 18 20" version="1.1" xmlns:xlink="http://www.w3.org/1999/xlink" xmlns="http://www.w3.org/2000/svg">
  <desc>Created with Lunacy</desc>
  <g id="Group-4">
    <path d="M7.42645 1.21008C5.84921 1.21008 4.57017 2.56476 4.57017 4.23528L4.57015 4.23528C4.57015 5.90579 5.8492 7.26047 7.42644 7.26047L7.42644 8.47055C5.21796 8.47055 3.42764 6.57436 3.42764 4.23528L3.42765 4.23528C3.42765 1.89619 5.21797 0 7.42645 0L7.42645 1.21008ZM7.42646 1.21008C9.0037 1.21008 10.2827 2.56476 10.2827 4.23528C10.2827 5.90579 9.0037 7.26047 7.42646 7.26047L7.42646 8.47055C9.63494 8.47055 11.4253 6.57436 11.4253 4.23528C11.4253 1.89619 9.63494 0 7.42646 0L7.42646 1.21008ZM1.77672 11.3989C1.91953 11.0934 2.23886 10.8907 2.63017 10.8907L12.2227 10.8907L12.2227 9.68063L2.63017 9.68063C1.87612 9.68063 1.11863 10.0806 0.753027 10.8617C0.453688 11.5006 0.0875128 12.4505 0.0075368 13.4331C-0.0513027 14.1603 0.234326 14.9094 0.866137 15.3257C1.8664 15.9833 3.9275 16.9411 7.42645 16.9411L7.42645 15.731C4.13544 15.731 2.28399 14.8338 1.46881 14.2977C1.25174 14.1543 1.11863 13.8748 1.14605 13.5365C1.20775 12.7754 1.50252 11.9846 1.77672 11.3989ZM12.2227 9.68063C12.9768 9.68063 13.7343 10.0806 14.0999 10.8617C14.3992 11.5006 14.7654 12.4505 14.8454 13.4331L14.8454 13.4331C14.9042 14.1603 14.6186 14.9094 13.9868 15.3257C12.9865 15.9833 10.9254 16.9411 7.42646 16.9411L7.42646 15.731C10.7175 15.731 12.5689 14.8338 13.3841 14.2977C13.6012 14.1543 13.7343 13.8748 13.7069 13.5366L13.7069 13.5365C13.6452 12.7754 13.3504 11.9846 13.0762 11.3989C12.9334 11.0934 12.6141 10.8907 12.2227 10.8907L12.2227 9.68063Z" transform="translate(0 1.058594)" id="Shape" fill="#B38A58" fill-rule="evenodd" stroke="none" />
  </g>
</svg>