<?xml version="1.0" encoding="utf-8"?>
<svg width="16px" height="18px" viewBox="0 0 16 18" version="1.1" xmlns:xlink="http://www.w3.org/1999/xlink" xmlns="http://www.w3.org/2000/svg">
  <desc>Created with Lunacy</desc>
  <g id="Group-2">
    <path d="M16 8C16 12.4171 12.4183 16 8 16C3.58171 16 0 12.4171 0 8C0 3.58286 3.58171 0 8 0C12.4183 0 16 3.58286 16 8ZM1.14286 8C1.14286 4.21143 4.21314 1.14286 8 1.14286C11.7869 1.14286 14.8571 4.21143 14.8571 8C14.8571 11.7886 11.7869 14.8571 8 14.8571C4.21314 14.8571 1.14286 11.7886 1.14286 8ZM8.57143 3.42857C8.57143 3.11429 8.31543 2.85714 8 2.85714C7.68457 2.85714 7.42857 3.11429 7.42857 3.42857L7.42857 8.57143C7.42857 8.74286 7.504 8.90286 7.63429 9.01143L11.0629 11.8686C11.3051 12.0686 11.6657 12.0343 11.8674 11.7943C12.0697 11.5543 12.0366 11.1943 11.7943 10.9886L8.57143 8.30286L8.57143 3.42857ZM8 8.57143L8.57143 8.57143L8.57143 8.30286L8.36571 8.13143L8 8.57143Z" id="Shape" fill="#B38A58" fill-rule="evenodd" stroke="none" />
  </g>
</svg>