                                        
<svg
    xmlns="http://www.w3.org/2000/svg" width="17" height="13"
                                            viewBox="0 0 17 13">
    <g>
        <g>
            <g>
                <path fill="#fff" class="hover-svg"
                                                            d="M16.272 1.492a7.218 7.218 0 0 1-1.922.502 3.203 3.203 0 0 0 1.468-1.76 6.88 6.88 0 0 1-2.116.771c-.936-.952-2.387-1.262-3.66-.782-1.272.48-2.108 1.654-2.11 2.96-.002.244.024.487.078.726-2.684-.125-5.186-1.336-6.877-3.33-.89 1.455-.44 3.318 1.025 4.255a3.416 3.416 0 0 1-1.507-.388v.035c.004 1.514 1.12 2.818 2.674 3.123-.286.073-.58.109-.876.106a3.063 3.063 0 0 1-.632-.054C2.26 8.95 3.508 9.84 4.935 9.874a6.909 6.909 0 0 1-4.137 1.36A6.537 6.537 0 0 1 0 11.188a9.725 9.725 0 0 0 5.118 1.429c2.523.016 4.948-.933 6.732-2.636 1.784-1.703 2.78-4.017 2.762-6.426 0-.14-.005-.276-.012-.411a6.51 6.51 0 0 0 1.672-1.654z" />
            </g>
        </g>
    </g>
</svg>
