<?xml version="1.0" encoding="utf-8"?>
<svg width="18" height="19" viewBox="0 0 18 19" version="1.1" xmlns:xlink="http://www.w3.org/1999/xlink" xmlns="http://www.w3.org/2000/svg">
  <desc>Created with Lunacy</desc>
  <g id="Group-3">
    <path  d="M4 1.14286L4 2.28571L2.85714 2.28571C1.91029 2.28571 1.14286 3.05143 1.14286 4L1.14286 5.14286L0.571429 5.14286C0.256 5.14286 0 5.4 0 5.71429L0 4C0 2.42286 1.27943 1.14286 2.85714 1.14286L4 1.14286ZM5.14286 1.14286L4 1.14286L4 0.571429C4 0.257143 4.256 0 4.57143 0C4.88686 0 5.14286 0.257143 5.14286 0.571429L5.14286 1.14286ZM10.8571 1.14286L5.14286 1.14286L5.14286 2.28571L4 2.28571L4 2.85714C4 3.17143 4.256 3.42857 4.57143 3.42857C4.88686 3.42857 5.14286 3.17143 5.14286 2.85714L5.14286 2.28571L10.8571 2.28571L10.8571 2.85714C10.8571 3.17143 11.1131 3.42857 11.4286 3.42857C11.744 3.42857 12 3.17143 12 2.85714L12 2.28571L13.1429 2.28571C14.0897 2.28571 14.8571 3.05143 14.8571 4L14.8571 5.14286L1.14286 5.14286L1.14286 6.28571L0.571429 6.28571C0.256 6.28571 0 6.02857 0 5.71429L0 13.1429C0 14.72 1.27943 16 2.85714 16L13.1429 16C14.7206 16 16 14.72 16 13.1429L16 4C16 2.42286 14.7206 1.14286 13.1429 1.14286L12 1.14286L12 0.571429C12 0.257143 11.744 0 11.4286 0C11.1131 0 10.8571 0.257143 10.8571 0.571429L10.8571 1.14286ZM10.8571 1.14286L12 1.14286L12 2.28571L10.8571 2.28571L10.8571 1.14286ZM14.8571 6.28571L14.8571 5.14286L15.4286 5.14286C15.744 5.14286 16 5.4 16 5.71429C16 6.02857 15.744 6.28571 15.4286 6.28571L14.8571 6.28571ZM14.8571 6.28571L1.14286 6.28571L1.14286 13.1429C1.14286 14.0914 1.91029 14.8571 2.85714 14.8571L13.1429 14.8571C14.0897 14.8571 14.8571 14.0914 14.8571 13.1429L14.8571 6.28571ZM3.42857 9.14286C3.42857 8.82857 3.68457 8.57143 4 8.57143L5.14286 8.57143C5.45829 8.57143 5.71429 8.82857 5.71429 9.14286C5.71429 9.45714 5.45829 9.71429 5.14286 9.71429L4 9.71429C3.68457 9.71429 3.42857 9.45714 3.42857 9.14286ZM6.85714 9.14286C6.85714 8.82857 7.11314 8.57143 7.42857 8.57143L8.57143 8.57143C8.88686 8.57143 9.14286 8.82857 9.14286 9.14286C9.14286 9.45714 8.88686 9.71429 8.57143 9.71429L7.42857 9.71429C7.11314 9.71429 6.85714 9.45714 6.85714 9.14286ZM10.2857 9.14286C10.2857 8.82857 10.5417 8.57143 10.8571 8.57143L12 8.57143C12.3154 8.57143 12.5714 8.82857 12.5714 9.14286C12.5714 9.45714 12.3154 9.71429 12 9.71429L10.8571 9.71429C10.5417 9.71429 10.2857 9.45714 10.2857 9.14286ZM3.42857 12C3.42857 11.6857 3.68457 11.4286 4 11.4286L5.14286 11.4286C5.45829 11.4286 5.71429 11.6857 5.71429 12C5.71429 12.3143 5.45829 12.5714 5.14286 12.5714L4 12.5714C3.68457 12.5714 3.42857 12.3143 3.42857 12ZM6.85714 12C6.85714 11.6857 7.11314 11.4286 7.42857 11.4286L8.57143 11.4286C8.88686 11.4286 9.14286 11.6857 9.14286 12C9.14286 12.3143 8.88686 12.5714 8.57143 12.5714L7.42857 12.5714C7.11314 12.5714 6.85714 12.3143 6.85714 12ZM10.2857 12C10.2857 11.6857 10.5417 11.4286 10.8571 11.4286L12 11.4286C12.3154 11.4286 12.5714 11.6857 12.5714 12C12.5714 12.3143 12.3154 12.5714 12 12.5714L10.8571 12.5714C10.5417 12.5714 10.2857 12.3143 10.2857 12Z" id="Shape" fill="#B38A58" fill-rule="evenodd" stroke="none" />
  </g>
</svg>